<?xml version="1.0" encoding="UTF-8" standalone="no"?>
<!-- Generator: Adobe Illustrator 19.0.0, SVG Export Plug-In . SVG Version: 6.00 Build 0)  -->

<svg
   xmlns:dc="http://purl.org/dc/elements/1.1/"
   xmlns:cc="http://creativecommons.org/ns#"
   xmlns:rdf="http://www.w3.org/1999/02/22-rdf-syntax-ns#"
   xmlns:svg="http://www.w3.org/2000/svg"
   xmlns="http://www.w3.org/2000/svg"
   xmlns:sodipodi="http://sodipodi.sourceforge.net/DTD/sodipodi-0.dtd"
   xmlns:inkscape="http://www.inkscape.org/namespaces/inkscape"
   version="1.1"
   id="Capa_1"
   x="0px"
   y="0px"
   viewBox="0 0 55 55"
   style="enable-background:new 0 0 55 55;"
   xml:space="preserve"
   inkscape:version="0.91 r13725"
   sodipodi:docname="exit.svg"><metadata
     id="metadata3377"><rdf:RDF><cc:Work
         rdf:about=""><dc:format>image/svg+xml</dc:format><dc:type
           rdf:resource="http://purl.org/dc/dcmitype/StillImage" /><dc:title></dc:title></cc:Work></rdf:RDF></metadata><defs
     id="defs3375" /><sodipodi:namedview
     pagecolor="#ffffff"
     bordercolor="#666666"
     borderopacity="1"
     objecttolerance="10"
     gridtolerance="10"
     guidetolerance="10"
     inkscape:pageopacity="0"
     inkscape:pageshadow="2"
     inkscape:window-width="1366"
     inkscape:window-height="705"
     id="namedview3373"
     showgrid="false"
     inkscape:zoom="9.7818182"
     inkscape:cx="27.5"
     inkscape:cy="27.5"
     inkscape:window-x="-8"
     inkscape:window-y="-8"
     inkscape:window-maximized="1"
     inkscape:current-layer="g3337" /><g
     id="g3337"><path
       d="M54.924,24.382c0.101-0.244,0.101-0.519,0-0.764c-0.051-0.123-0.125-0.234-0.217-0.327L42.708,11.293   c-0.391-0.391-1.023-0.391-1.414,0s-0.391,1.023,0,1.414L51.587,23H36.001V1c0-0.553-0.447-1-1-1h-34   c-0.032,0-0.06,0.015-0.091,0.018C0.854,0.023,0.805,0.036,0.752,0.05C0.658,0.075,0.574,0.109,0.493,0.158   C0.467,0.174,0.435,0.174,0.411,0.192C0.38,0.215,0.356,0.244,0.328,0.269c-0.017,0.016-0.035,0.03-0.051,0.047   C0.201,0.398,0.139,0.489,0.093,0.589c-0.009,0.02-0.014,0.04-0.022,0.06C0.029,0.761,0.001,0.878,0.001,1v46   c0,0.125,0.029,0.243,0.072,0.355c0.014,0.037,0.035,0.068,0.053,0.103c0.037,0.071,0.079,0.136,0.132,0.196   c0.029,0.032,0.058,0.061,0.09,0.09c0.058,0.051,0.123,0.093,0.193,0.13c0.037,0.02,0.071,0.041,0.111,0.056   c0.017,0.006,0.03,0.018,0.047,0.024l22,7C22.797,54.984,22.899,55,23.001,55c0.21,0,0.417-0.066,0.59-0.192   c0.258-0.188,0.41-0.488,0.41-0.808v-6h11c0.553,0,1-0.447,1-1V25h15.586L41.294,35.293c-0.391,0.391-0.391,1.023,0,1.414   C41.489,36.902,41.745,37,42.001,37s0.512-0.098,0.707-0.293l11.999-11.999C54.799,24.616,54.873,24.505,54.924,24.382z    M22.001,52.633l-20-6.364V2.367l20,6.364V52.633z M34.001,46h-10V8c0-0.436-0.282-0.821-0.697-0.953L7.442,2h26.559V46z"
       id="path3339" /><path
       d="M20.372,31.071l-5-2c-0.509-0.205-1.095,0.043-1.3,0.558c-0.205,0.513,0.045,1.095,0.558,1.3l5,2   C19.751,32.978,19.877,33,20.001,33c0.396,0,0.772-0.237,0.929-0.629C21.134,31.858,20.884,31.276,20.372,31.071z"
       id="path3341" /><path
       style="fill:#a0a0a0;stroke:none;stroke-width:1px;stroke-linecap:butt;stroke-linejoin:miter;stroke-opacity:1"
       d="M 11.776952,51.427493 C 5.7325743,49.495044 0.70349411,47.884872 0.60121781,47.849333 0.49894151,47.813795 0.32659953,47.639314 0.21823563,47.461597 0.02522495,47.145059 0.0212026,46.667286 0.02082824,24.013639 0.02053555,6.3018531 0.04903498,0.82605688 0.14257935,0.62074937 0.4129862,0.02727098 -0.67469478,0.06133829 18.003124,0.06133829 c 12.371189,0 17.244676,0.03175197 17.424143,0.11352259 0.137035,0.0624374 0.300805,0.2119495 0.363933,0.33224907 0.0824,0.1570305 0.121615,3.36185725 0.139019,11.36184905 l 0.02424,11.143123 7.871057,0.0262 7.871058,0.0262 -5.277519,-5.291068 c -3.50351,-3.512506 -5.298864,-5.383186 -5.34102,-5.565108 -0.135448,-0.584523 0.353989,-1.145674 0.983645,-1.127771 0.282788,0.008 1.050413,0.73936 6.588308,6.276705 6.19154,6.190927 6.268226,6.272587 6.268226,6.674843 0,0.402035 -0.07806,0.485416 -6.108272,6.524438 -3.359549,3.364459 -6.232497,6.183084 -6.384328,6.263611 -0.407442,0.216096 -0.653701,0.180551 -1.020657,-0.147325 -0.2572,-0.229807 -0.328751,-0.375465 -0.328751,-0.669242 0,-0.35953 0.225688,-0.601222 5.305839,-5.682077 3.576563,-3.577059 5.257501,-5.325041 5.157528,-5.363232 -0.08157,-0.03116 -3.621592,-0.04476 -7.866713,-0.03022 l -7.718401,0.02643 -0.05112,11.267276 c -0.04827,10.639987 -0.06128,11.277439 -0.233613,11.449815 -0.169603,0.169639 -0.588592,0.186149 -5.929368,0.233652 l -5.746871,0.05112 -0.05111,3.254795 -0.05111,3.254795 -0.286834,0.246599 c -0.160705,0.138161 -0.407953,0.242626 -0.562268,0.237564 -0.151488,-0.005 -5.220833,-1.590131 -11.26521,-3.52258 z M 21.973125,8.6899773 C 21.958086,8.6749386 17.507122,7.249976 12.082091,5.5233938 6.657062,3.7968116 2.1608968,2.3626391 2.0906134,2.3363437 1.9886269,2.2981872 1.963195,6.7337888 1.9646566,24.304583 l 0.00183,22.016049 9.9911981,3.172636 9.991199,3.172636 0.02579,-21.974292 c 0.01419,-12.08586 0.01349,-21.986596 -0.0016,-22.0016347 l 2e-6,0 z M 34.037872,24.008829 34.012082,1.9526022 20.747677,1.9266618 c -7.295423,-0.014267 -13.2644056,0.011177 -13.2644056,0.056542 0,0.045365 3.0937496,1.0658929 6.8749996,2.2678389 9.726712,3.0918299 9.179636,2.9064014 9.392848,3.1836623 0.179254,0.2331037 0.186805,1.0096309 0.188987,19.4365779 l 0.0023,19.193773 5.060642,0 5.060642,0 -0.02579,-22.056227 z"
       id="path3379"
       inkscape:connector-curvature="0" /><path
       style="fill:#a0a0a0;stroke:none;stroke-width:1px;stroke-linecap:butt;stroke-linejoin:miter;stroke-opacity:1"
       d="M 21.948885,54.58937 C 21.499071,54.447515 19.083875,53.686023 16.581784,52.897166 5.6809712,49.460365 0.57748103,47.789287 0.37825279,47.591508 0.18004804,47.394746 0.17126925,47.195459 0.091351,41.078562 -0.03213371,31.627111 0.0900915,0.92389117 0.25255046,0.58493186 0.35254766,0.37629466 0.48955243,0.29932349 0.89023419,0.2266724 1.4744953,0.12073492 35.04945,0.10590155 35.381954,0.21143401 c 0.118204,0.0375167 0.26888,0.16860505 0.334834,0.29130734 0.0888,0.16520167 0.132126,3.12137925 0.166964,11.39177565 l 0.04705,11.16868 7.92533,0 7.925329,0 -5.276631,-5.306087 c -3.523889,-3.543559 -5.300305,-5.400406 -5.347899,-5.590035 -0.136726,-0.544759 0.485899,-1.166746 1.00968,-1.008645 0.298251,0.09003 12.608188,12.40302 12.67216,12.675309 0.02691,0.11455 0.0076,0.321567 -0.04292,0.460037 -0.05052,0.138469 -2.862565,3.023487 -6.24899,6.41115 -5.883575,5.885725 -6.173648,6.159386 -6.528783,6.159386 -0.289499,0 -0.430147,-0.06952 -0.636311,-0.314535 -0.145565,-0.172994 -0.264664,-0.400624 -0.264664,-0.505845 0,-0.287662 0.780721,-1.157779 3.116456,-3.4733 2.974547,-2.948806 7.311054,-7.433278 7.311054,-7.560514 0,-0.07328 -2.448549,-0.106772 -7.805282,-0.106772 l -7.805282,0 -0.07656,10.964219 c -0.04211,6.030321 -0.106773,11.144993 -0.143701,11.365937 -0.0543,0.324898 -0.120312,0.415937 -0.345186,0.476078 -0.152926,0.0409 -2.779762,0.108133 -5.837414,0.14941 l -5.559369,0.07505 -0.06989,3.2314 -0.06989,3.2314 -0.257217,0.230019 c -0.324759,0.290417 -0.606772,0.283914 -1.625928,-0.03749 z M 22,30.690306 C 22,10.656157 21.98534,8.6649485 21.837429,8.6081894 c -0.08941,-0.034311 -0.204424,-0.036518 -0.255576,-0.0049 -0.05115,0.031614 -0.093,0.00384 -0.093,-0.061721 0,-0.065561 -0.06603,-0.093862 -0.146741,-0.062892 -0.08071,0.03097 -0.161214,0.019738 -0.178903,-0.024961 -0.04982,-0.1258921 -1.700643,-0.6462472 -1.818713,-0.573276 -0.05759,0.035594 -0.104714,0.011076 -0.104714,-0.054485 0,-0.065561 -0.06603,-0.093862 -0.146741,-0.062892 -0.08071,0.030971 -0.161214,0.019753 -0.178903,-0.024927 C 18.866423,7.617625 16.909396,6.9880148 16.797497,7.0571726 16.744687,7.0898112 16.686048,7.0740865 16.667189,7.0222287 16.640426,6.9486368 2.3157838,2.3104089 2.1152666,2.3104089 c -0.027105,0 -0.060992,9.9161211 -0.075304,22.0358241 l -0.026022,22.035823 1.482342,0.471215 c 0.8152881,0.259168 5.2776487,1.679569 9.9163565,3.156447 4.638709,1.476878 8.468518,2.688627 8.510688,2.692776 C 21.965497,52.706644 22,42.801157 22,30.690306 Z m 12.063197,-6.707035 0,-22.081784 -13.310409,0 c -8.666664,0 -13.2755554,0.034853 -13.2105082,0.099901 0.1478237,0.1478237 1.2793885,0.519739 1.3842127,0.4549541 0.04963,-0.030673 0.090236,-0.00213 0.090236,0.063432 0,0.065561 0.066033,0.093862 0.1467408,0.062892 0.080707,-0.03097 0.161214,-0.019753 0.1789034,0.024927 0.04771,0.1205071 2.0047362,0.7501173 2.1166362,0.6809595 0.05281,-0.032639 0.111448,-0.016892 0.130308,0.034991 0.01886,0.051884 1.713425,0.6305544 3.765702,1.2859347 5.667692,1.8099381 7.778742,2.5052837 8.081869,2.6620368 0.162566,0.084066 0.300456,0.2595376 0.336039,0.4276263 0.03319,0.1567827 0.0925,8.8532517 0.131791,19.3254867 l 0.07145,19.040428 5.043517,0 5.043515,0 0,-22.081785 z"
       id="path3381"
       inkscape:connector-curvature="0" /><path
       style="fill:#a0a0a0;stroke:none;stroke-width:1px;stroke-linecap:butt;stroke-linejoin:miter;stroke-opacity:1"
       d="m 17.15336,31.88265 c -2.386069,-0.952754 -2.776404,-1.139286 -2.943094,-1.406436 -0.372237,-0.596572 0.06555,-1.381418 0.770562,-1.381418 0.247014,0 3.59438,1.272123 5.566169,2.115351 0.229328,0.09807 0.447801,0.640969 0.380764,0.946186 -0.07544,0.343472 -0.416718,0.683589 -0.76791,0.765294 -0.18217,0.04238 -1.045687,-0.25603 -3.006491,-1.038977 z"
       id="path3383"
       inkscape:connector-curvature="0" /><path
       style="fill:#ffffff;stroke:none;stroke-width:1px;stroke-linecap:butt;stroke-linejoin:miter;stroke-opacity:1"
       d="m 22.10223,54.639153 c -0.365473,-0.113432 -2.771441,-0.871219 -5.346593,-1.683972 -2.575154,-0.812753 -4.721898,-1.453134 -4.770544,-1.423069 -0.04865,0.03007 -0.103877,0.01298 -0.122737,-0.03797 C 11.843497,51.443189 9.2978625,50.59011 6.2053903,49.598409 2.5819534,48.436437 0.51001413,47.722994 0.37825279,47.591916 0.18115667,47.395843 0.17080052,47.194368 0.09074796,41.998627 -0.03917404,33.566152 0.08437929,0.93580929 0.24751929,0.59542903 0.34614993,0.38964306 0.49138448,0.29892849 0.83831337,0.22641465 1.3749284,0.11425325 35.016728,0.09551609 35.368559,0.20718265 c 0.125571,0.039855 0.282954,0.17285641 0.349739,0.2955587 0.09085,0.16691903 0.13268,3.03540415 0.16612,11.39177565 l 0.04469,11.16868 7.926174,0 7.926172,0 -5.276631,-5.306087 c -3.523889,-3.543559 -5.300305,-5.400406 -5.347899,-5.590035 -0.136726,-0.544759 0.485899,-1.166746 1.00968,-1.008645 0.298251,0.09003 12.608188,12.40302 12.67216,12.675309 0.02691,0.11455 0.0076,0.321567 -0.04292,0.460037 -0.05052,0.138469 -2.862565,3.023487 -6.24899,6.41115 -5.883575,5.885725 -6.173648,6.159386 -6.528783,6.159386 -0.289499,0 -0.430147,-0.06952 -0.636311,-0.314535 -0.322148,-0.382851 -0.331665,-0.590352 -0.04473,-0.975117 0.120966,-0.162206 1.630442,-1.721035 3.354391,-3.464065 4.898819,-4.95304 6.86253,-7.007185 6.798199,-7.111275 -0.03612,-0.05845 -3.088758,-0.09597 -7.806716,-0.09597 l -7.747401,0 -0.07623,10.964219 c -0.04192,6.030321 -0.106918,11.144993 -0.144433,11.365937 -0.05621,0.331061 -0.119941,0.415552 -0.36233,0.480377 -0.161767,0.04326 -2.788132,0.111173 -5.836369,0.150911 l -5.542248,0.07225 -0.06829,3.2299 -0.06829,3.229899 -0.259865,0.230019 c -0.315344,0.279127 -0.607653,0.281563 -1.475228,0.01229 z M 22,30.893051 C 22,15.147536 21.968595,9.1002716 21.885586,8.8621529 21.811655,8.6500726 21.721225,8.5531103 21.630009,8.588113 c -0.07764,0.029793 -0.141161,0.00469 -0.141161,-0.055791 0,-0.060478 -0.06753,-0.084045 -0.150072,-0.052372 -0.08254,0.031673 -0.176571,0.014712 -0.208958,-0.037692 -0.07817,-0.1264856 -1.692164,-0.6194015 -1.803283,-0.5507259 -0.04772,0.029491 -0.08676,-2.14e-5 -0.08676,-0.065582 0,-0.065561 -0.06753,-0.093287 -0.150071,-0.061613 -0.08254,0.031673 -0.176385,0.015015 -0.208543,-0.037019 -0.08154,-0.1319274 -1.681427,-0.6269668 -1.796471,-0.5558654 -0.05169,0.031947 -0.09399,0.00735 -0.09399,-0.054659 0,-0.06201 -0.0575,-0.1034729 -0.127788,-0.09214 -0.07028,0.011333 -0.196793,-0.00941 -0.281134,-0.046097 C 16.0946,6.7666432 14.600709,6.3092466 14.532816,6.3512073 c -0.04423,0.027332 -0.09584,0.010267 -0.114698,-0.037922 -0.04884,-0.124804 -2.003148,-0.7587928 -2.118762,-0.6873394 -0.05281,0.032639 -0.111449,0.017086 -0.130309,-0.03456 C 12.143883,5.5224721 4.9001516,3.1565626 2.2955389,2.3665522 l -0.2295541,-0.069627 -0.026022,22.0423764 -0.026022,22.042377 0.9711896,0.30379 c 0.5341543,0.167085 4.9965149,1.58433 9.9163569,3.149434 4.919842,1.565104 8.97967,2.826561 9.02184,2.80324 C 21.965497,52.614822 22,42.829529 22,30.893051 Z m 12.063197,-6.90978 0,-22.081784 -13.187732,0 c -7.930952,0 -13.1877327,0.03738 -13.1877327,0.093775 0,0.1094774 0.7661761,0.4184914 1.0999564,0.4436343 0.125972,0.00949 0.2290399,0.058389 0.2290399,0.108666 0,0.050277 0.067532,0.065498 0.1500718,0.033825 0.08254,-0.031673 0.1766698,-0.014552 0.2091785,0.038049 0.076471,0.123733 1.9937741,0.7242792 2.1009201,0.6580595 0.04481,-0.027691 0.109767,-0.00455 0.144361,0.051422 0.07838,0.1268194 1.993846,0.7327093 2.103041,0.6652225 0.04389,-0.027124 0.09523,-0.00801 0.114086,0.042483 0.01886,0.05049 1.713425,0.6285289 3.765702,1.2845304 5.830369,1.8636525 5.958019,1.9104085 6.117374,2.2406871 0.112218,0.2325823 0.147348,3.7280354 0.194913,19.3934674 l 0.05802,19.109748 5.044398,0 5.0444,0 0,-22.081785 z"
       id="path3385"
       inkscape:connector-curvature="0" /><path
       style="fill:#ffffff"
       d="m 18.575279,32.379021 c -2.075546,-0.76713 -3.934445,-1.572652 -4.202508,-1.821085 -0.28598,-0.265037 -0.319632,-0.697023 -0.08086,-1.037924 0.32352,-0.46189 0.556272,-0.457959 1.908052,0.03223 2.329207,0.844627 4.316723,1.686301 4.496594,1.90422 0.273891,0.331827 0.226454,0.775656 -0.119924,1.122034 -0.164355,0.164355 -0.382873,0.29723 -0.485595,0.295278 -0.102722,-0.002 -0.784815,-0.224591 -1.515763,-0.494753 z"
       id="path3387"
       inkscape:connector-curvature="0" /></g><g
     id="g3343" /><g
     id="g3345" /><g
     id="g3347" /><g
     id="g3349" /><g
     id="g3351" /><g
     id="g3353" /><g
     id="g3355" /><g
     id="g3357" /><g
     id="g3359" /><g
     id="g3361" /><g
     id="g3363" /><g
     id="g3365" /><g
     id="g3367" /><g
     id="g3369" /><g
     id="g3371" /></svg>