<?xml version="1.0" encoding="UTF-8" standalone="no"?>
<!-- Generator: Adobe Illustrator 19.0.0, SVG Export Plug-In . SVG Version: 6.00 Build 0)  -->

<svg
   xmlns:dc="http://purl.org/dc/elements/1.1/"
   xmlns:cc="http://creativecommons.org/ns#"
   xmlns:rdf="http://www.w3.org/1999/02/22-rdf-syntax-ns#"
   xmlns:svg="http://www.w3.org/2000/svg"
   xmlns="http://www.w3.org/2000/svg"
   xmlns:sodipodi="http://sodipodi.sourceforge.net/DTD/sodipodi-0.dtd"
   xmlns:inkscape="http://www.inkscape.org/namespaces/inkscape"
   version="1.1"
   id="Capa_1"
   x="0px"
   y="0px"
   viewBox="0 0 60 60"
   style="enable-background:new 0 0 60 60;"
   xml:space="preserve"
   inkscape:version="0.91 r13725"
   sodipodi:docname="oferty.svg"><metadata
     id="metadata3440"><rdf:RDF><cc:Work
         rdf:about=""><dc:format>image/svg+xml</dc:format><dc:type
           rdf:resource="http://purl.org/dc/dcmitype/StillImage" /><dc:title></dc:title></cc:Work></rdf:RDF></metadata><defs
     id="defs3438" /><sodipodi:namedview
     pagecolor="#ffffff"
     bordercolor="#666666"
     borderopacity="1"
     objecttolerance="10"
     gridtolerance="10"
     guidetolerance="10"
     inkscape:pageopacity="0"
     inkscape:pageshadow="2"
     inkscape:window-width="1366"
     inkscape:window-height="705"
     id="namedview3436"
     showgrid="false"
     inkscape:zoom="3.9333333"
     inkscape:cx="30"
     inkscape:cy="30"
     inkscape:window-x="-8"
     inkscape:window-y="-8"
     inkscape:window-maximized="1"
     inkscape:current-layer="g3390" /><g
     id="g3390"><path
       d="M23.429,17H47c0.552,0,1-0.447,1-1s-0.448-1-1-1H23.429c-0.552,0-1,0.447-1,1S22.877,17,23.429,17z"
       id="path3392"
       style="fill:#ffffff" /><path
       d="M23.429,32H47c0.552,0,1-0.447,1-1s-0.448-1-1-1H23.429c-0.552,0-1,0.447-1,1S22.877,32,23.429,32z"
       id="path3394"
       style="fill:#ffffff" /><path
       d="M23.429,47H47c0.552,0,1-0.447,1-1s-0.448-1-1-1H23.429c-0.552,0-1,0.447-1,1S22.877,47,23.429,47z"
       id="path3396"
       style="fill:#ffffff" /><path
       d="M 59,0 1,0 C 0.448,0 0,0.447 0,1 l 0,58 c 0,0.553 0.448,1 1,1 l 58,0 c 0.552,0 1,-0.447 1,-1 L 60,1 C 60,0.447 59.552,0 59,0 Z M 58,58 2,58 2,47.033898 2,45 2,41.440678 2,2 58,2 Z"
       id="path3398"
       inkscape:connector-curvature="0"
       sodipodi:nodetypes="ssssssssscccccccc"
       style="fill:#ffffff" /><polygon
       points="12.501,18.474 14.929,17.197 17.357,18.474 16.894,15.77 18.858,13.854 16.143,13.46 14.929,11 13.715,13.46    11,13.854 12.965,15.77  "
       id="polygon3400"
       style="fill:#ffffff" /><polygon
       points="12.501,33.557 14.929,32.28 17.357,33.557 16.894,30.853 18.858,28.938 16.143,28.543 14.929,26.083    13.715,28.543 11,28.938 12.965,30.853  "
       id="polygon3402"
       style="fill:#ffffff" /><polygon
       points="12.501,49 14.929,47.723 17.357,49 16.894,46.296 18.858,44.381 16.143,43.986 14.929,41.526 13.715,43.986    11,44.381 12.965,46.296  "
       id="polygon3404"
       style="fill:#ffffff" /></g><g
     id="g3406" /><g
     id="g3408" /><g
     id="g3410" /><g
     id="g3412" /><g
     id="g3414" /><g
     id="g3416" /><g
     id="g3418" /><g
     id="g3420" /><g
     id="g3422" /><g
     id="g3424" /><g
     id="g3426" /><g
     id="g3428" /><g
     id="g3430" /><g
     id="g3432" /><g
     id="g3434" /></svg>