<?xml version="1.0" encoding="UTF-8" standalone="no"?>
<!-- Generator: Adobe Illustrator 18.0.0, SVG Export Plug-In . SVG Version: 6.00 Build 0)  -->

<svg
   xmlns:dc="http://purl.org/dc/elements/1.1/"
   xmlns:cc="http://creativecommons.org/ns#"
   xmlns:rdf="http://www.w3.org/1999/02/22-rdf-syntax-ns#"
   xmlns:svg="http://www.w3.org/2000/svg"
   xmlns="http://www.w3.org/2000/svg"
   xmlns:sodipodi="http://sodipodi.sourceforge.net/DTD/sodipodi-0.dtd"
   xmlns:inkscape="http://www.inkscape.org/namespaces/inkscape"
   version="1.1"
   id="Capa_1"
   x="0px"
   y="0px"
   viewBox="0 0 60 60"
   style="enable-background:new 0 0 60 60;"
   xml:space="preserve"
   inkscape:version="0.91 r13725"
   sodipodi:docname="zakupy.svg"><metadata
     id="metadata3571"><rdf:RDF><cc:Work
         rdf:about=""><dc:format>image/svg+xml</dc:format><dc:type
           rdf:resource="http://purl.org/dc/dcmitype/StillImage" /><dc:title></dc:title></cc:Work></rdf:RDF></metadata><defs
     id="defs3569" /><sodipodi:namedview
     pagecolor="#ffffff"
     bordercolor="#666666"
     borderopacity="1"
     objecttolerance="10"
     gridtolerance="10"
     guidetolerance="10"
     inkscape:pageopacity="0"
     inkscape:pageshadow="2"
     inkscape:window-width="1366"
     inkscape:window-height="705"
     id="namedview3567"
     showgrid="false"
     inkscape:zoom="3.9333333"
     inkscape:cx="30"
     inkscape:cy="30"
     inkscape:window-x="-8"
     inkscape:window-y="-8"
     inkscape:window-maximized="1"
     inkscape:current-layer="g3527" /><g
     id="g3527"><path
       d="M59,16V2H1v14H0v37.259C0,55.873,2.127,58,4.742,58h50.517C57.873,58,60,55.873,60,53.259V16H59z M56.5,16l-5.18-6.906   L56.414,4H57v12H56.5z M11,16V9c0-0.024-0.012-0.046-0.014-0.07c-0.005-0.064-0.02-0.124-0.036-0.187   c-0.011-0.042-0.01-0.085-0.027-0.125c-0.009-0.022-0.027-0.039-0.037-0.061c-0.027-0.055-0.065-0.102-0.103-0.152   c-0.028-0.036-0.044-0.081-0.077-0.113L6.414,4h47.172l-4.292,4.292c-0.032,0.032-0.049,0.077-0.077,0.113   c-0.038,0.05-0.075,0.097-0.102,0.152c-0.011,0.022-0.028,0.038-0.038,0.061c-0.017,0.04-0.016,0.084-0.027,0.125   c-0.017,0.063-0.032,0.122-0.036,0.187C49.012,8.954,49,8.976,49,9v7H11z M6,16l3-4.001V16H6z M51,11.999L54,16h-3V11.999z M3,4   h0.586L8.68,9.094L3.5,16H3V4z M58,53.259C58,54.771,56.77,56,55.258,56H4.742C3.23,56,2,54.771,2,53.259V18h56V53.259z"
       id="path3529"
       style="fill:#ffffff" /><path
       d="M42,24c-0.552,0-1,0.447-1,1v6c0,6.065-4.935,11-11,11s-11-4.935-11-11v-6c0-0.553-0.448-1-1-1s-1,0.447-1,1v6   c0,7.168,5.832,13,13,13s13-5.832,13-13v-6C43,24.447,42.552,24,42,24z"
       id="path3531"
       style="fill:#ffffff" /><path
       d="m 20,25 c 0,0.553 0.448,1 1,1 0.552,0 1,-0.447 1,-1 0,-1.032288 -0.392838,-1.97436 -1.036904,-2.684604 C 20.230793,21.507848 19.173712,21 18,21 c -2.206,0 -4,1.794 -4,4 0,0.553 0.448,1 1,1 0.552,0 1,-0.447 1,-1 0,-1.103 0.897,-2 2,-2 1.103,0 2,0.897 2,2 z"
       id="path3533"
       inkscape:connector-curvature="0"
       sodipodi:nodetypes="ssssssssss"
       style="fill:#ffffff" /><path
       d="M42,21c-2.206,0-4,1.794-4,4c0,0.553,0.448,1,1,1s1-0.447,1-1c0-1.103,0.897-2,2-2s2,0.897,2,2c0,0.553,0.448,1,1,1   s1-0.447,1-1C46,22.794,44.206,21,42,21z"
       id="path3535"
       style="fill:#ffffff" /></g><g
     id="g3537" /><g
     id="g3539" /><g
     id="g3541" /><g
     id="g3543" /><g
     id="g3545" /><g
     id="g3547" /><g
     id="g3549" /><g
     id="g3551" /><g
     id="g3553" /><g
     id="g3555" /><g
     id="g3557" /><g
     id="g3559" /><g
     id="g3561" /><g
     id="g3563" /><g
     id="g3565" /></svg>