<?xml version="1.0" encoding="iso-8859-1"?>
<!-- Generator: Adobe Illustrator 19.0.0, SVG Export Plug-In . SVG Version: 6.00 Build 0)  -->
<svg xmlns="http://www.w3.org/2000/svg" xmlns:xlink="http://www.w3.org/1999/xlink" version="1.1" id="Capa_1" x="0px" y="0px" viewBox="0 0 491.2 491.2" style="enable-background:new 0 0 491.2 491.2;" xml:space="preserve" width="512px" height="512px">
<g>
	<path d="M470.3,101.65h-110c7.2-10.5,11-22.7,11-35.4c0-30-24.6-65.7-68.8-65.7c-17.7,0-35.4,6.3-48,18.8   c-3.3,3.1-6.4,6.7-9.4,10.6c-2.9-3.9-6.1-7.5-9.4-10.6c-12.5-12.5-30.2-18.8-48-18.8c-43.3,0-68.8,38-68.8,65.7   c0,12.7,3.8,24.9,11,35.4h-109c-11.5,0-20.9,9.4-20.9,20.9v99c0,11.5,9.4,20.9,20.9,20.9h17.7v227.3c0,11.5,9.4,20.9,20.9,20.9   h371.1c11.5,0,19.8-9.4,20.9-19.8v-228.4h18.8c11.5,0,20.9-9.4,20.9-20.9v-99C491.1,111.05,481.7,101.65,470.3,101.65z    M279.4,54.35c27.6-39,72.3,3.4,44.9,28.6c-8.3,8.3-55.3,16.7-56.3,15.6C267.6,97.75,259.2,82.85,279.4,54.35z M213.1,54.55   c16.1,22.1,10.2,40.5,10.5,42.5c-0.1,0.2-0.2,0.3-0.4,0.5c-1,1-46.9-7.3-56.3-15.6C143.6,59.85,186.1,17.55,213.1,54.55z    M224.2,449.85H80.4v-207.4h143.9v207.4H224.2z M410.8,449.85H265.9v-207.4h144.9L410.8,449.85L410.8,449.85z M450.5,200.75H40.7   v-58.4h409.7v58.4H450.5z" fill="#707070"/>
</g>
<g>
</g>
<g>
</g>
<g>
</g>
<g>
</g>
<g>
</g>
<g>
</g>
<g>
</g>
<g>
</g>
<g>
</g>
<g>
</g>
<g>
</g>
<g>
</g>
<g>
</g>
<g>
</g>
<g>
</g>
</svg>
