<?xml version="1.0" encoding="UTF-8" standalone="no"?>
<!-- Created with Inkscape (http://www.inkscape.org/) -->

<svg
   xmlns:dc="http://purl.org/dc/elements/1.1/"
   xmlns:cc="http://creativecommons.org/ns#"
   xmlns:rdf="http://www.w3.org/1999/02/22-rdf-syntax-ns#"
   xmlns:svg="http://www.w3.org/2000/svg"
   xmlns="http://www.w3.org/2000/svg"
   xmlns:xlink="http://www.w3.org/1999/xlink"
   xmlns:sodipodi="http://sodipodi.sourceforge.net/DTD/sodipodi-0.dtd"
   xmlns:inkscape="http://www.inkscape.org/namespaces/inkscape"
   id="svg4136"
   version="1.1"
   inkscape:version="0.91 r13725"
   xml:space="preserve"
   width="678.88867"
   height="159.71864"
   viewBox="0 0 678.88867 159.71864"
   sodipodi:docname="logo-bazar-white.svg"><metadata
     id="metadata4142"><rdf:RDF><cc:Work
         rdf:about=""><dc:format>image/svg+xml</dc:format><dc:type
           rdf:resource="http://purl.org/dc/dcmitype/StillImage" /><dc:title></dc:title></cc:Work></rdf:RDF></metadata><defs
     id="defs4140"><linearGradient
       inkscape:collect="always"
       id="linearGradient4279"><stop
         style="stop-color:#ec6b00;stop-opacity:1"
         offset="0"
         id="stop4281" /><stop
         style="stop-color:#f4a200;stop-opacity:1"
         offset="1"
         id="stop4283" /></linearGradient><clipPath
       clipPathUnits="userSpaceOnUse"
       id="clipPath4154"><path
         d="m 0.2740081,0.5431877 c 0.0132586,0 0.024006,-0.0194084 0.024006,-0.0433469 0,-0.0239385 -0.0107474,-0.0433469 -0.024006,-0.0433469 C 0.2607495,0.4564939 0.25,0.4759023 0.25,0.4998408 c 0,0.0239385 0.0107495,0.0433469 0.0240081,0.0433469 z"
         id="path4156"
         inkscape:connector-curvature="0"
         style="clip-rule:evenodd" /></clipPath><clipPath
       clipPathUnits="userSpaceOnUse"
       id="clipPath4164"><path
         d="m 0.3747778,0.595204 c 0.0291374,0 0.0527555,-0.0426956 0.0527555,-0.0953632 0,-0.0526676 -0.0236181,-0.0953632 -0.0527555,-0.0953632 -0.0291354,0 -0.0527556,0.0426956 -0.0527556,0.0953632 0,0.0526676 0.0236202,0.0953632 0.0527556,0.0953632 z"
         id="path4166"
         inkscape:connector-curvature="0"
         style="clip-rule:evenodd" /></clipPath><clipPath
       clipPathUnits="userSpaceOnUse"
       id="clipPath4174"><path
         d="m 0.3747778,0.5431877 c 0.0132586,0 0.0240081,-0.0194084 0.0240081,-0.0433469 0,-0.0239385 -0.0107495,-0.0433469 -0.0240081,-0.0433469 -0.0132586,0 -0.0240061,0.0194084 -0.0240061,0.0433469 0,0.0239385 0.0107475,0.0433469 0.0240061,0.0433469 z"
         id="path4176"
         inkscape:connector-curvature="0"
         style="clip-rule:evenodd" /></clipPath><clipPath
       clipPathUnits="userSpaceOnUse"
       id="clipPath4184"><path
         d="m 0.5106343,0.4647001 0,-0.0153849 c 0,-0.0291488 -0.008592,-0.0448014 -0.0251717,-0.0448014 l -0.0260767,0 0,0.1889208 0.0250222,0 c 0.0171838,0 0.0245697,-0.014303 0.0245697,-0.0434518 l 0,-0.006748 c 0,-0.0194301 -0.003317,-0.0318444 -0.0107031,-0.0380533 0.008893,-0.006205 0.0123596,-0.020512 0.0123596,-0.0404813 z M 0.492396,0.5470122 c 0,0.0134962 -0.002562,0.0194338 -0.00844,0.0194338 l -0.007988,0 0,-0.0499286 0.006481,0 c 0.00618,0 0.009947,0.004856 0.009947,0.0199729 l 0,0.0105219 z M 0.494055,0.4665889 c 0,0.0175414 -0.003166,0.0229398 -0.010701,0.0229398 l -0.007386,0 0,-0.0580262 0.009495,0 c 0.005578,0 0.008592,0.004588 0.008592,0.0186232 l 0,0.0164632 z m 0.0634485,-0.0620751 -0.002865,0.0342759 -0.0203495,0 -0.002863,-0.0342759 -0.0152243,0 0.0168808,0.1889208 0.0242687,0 0.0168828,-0.1889208 -0.0167313,0 z M 0.5443879,0.5599692 0.5364,0.4644288 l 0.0159778,0 -0.00799,0.0955404 z m 0.0834969,-0.1554554 -0.0485353,0 0,0.0264496 0.031503,0.1354826 -0.0299959,0 0,0.0269886 0.0470282,0 0,-0.0264495 -0.031503,-0.1354826 0.031503,0 0,-0.0269887 z m 0.0467172,0 -0.002863,0.0342759 -0.0203495,0 -0.002865,-0.0342759 -0.0152223,0 0.0168808,0.1889208 0.0242687,0 0.0168808,-0.1889208 -0.0167313,0 z M 0.6614889,0.5599692 0.653501,0.4644288 l 0.0159758,0 -0.007988,0.0955404 z M 0.7336808,0.4045138 c -9.05e-4,0.004859 -0.001509,0.007826 -0.001509,0.0232112 l 0,0.0296879 c 0,0.0175414 -0.003315,0.0240181 -0.0108525,0.0240181 l -0.005727,0 0,-0.0769172 -0.0165798,0 0,0.1889208 0.0250202,0 c 0.0171839,0 0.0245697,-0.014303 0.0245697,-0.0434518 l 0,-0.0148421 c 0,-0.0194338 -0.003467,-0.0321194 -0.0108525,-0.0383248 0.008291,-0.006209 0.011004,-0.020512 0.011004,-0.0402135 l 0,-0.0291488 c 0,-0.009176 1.495e-4,-0.0159204 0.001808,-0.0229398 l -0.0168808,0 z m -0.001659,0.1424984 c 0,0.0134962 -0.002564,0.0194338 -0.00844,0.0194338 l -0.00799,0 0,-0.0580263 0.006481,0 c 0.006182,0 0.009949,0.004859 0.009949,0.0199729 l 0,0.0186196 z"
         id="path4186"
         inkscape:connector-curvature="0" /></clipPath><linearGradient
       inkscape:collect="always"
       xlink:href="#linearGradient4279"
       id="linearGradient4709"
       x1="300.49777"
       y1="-503.92026"
       x2="359.70151"
       y2="-503.92026"
       gradientUnits="userSpaceOnUse"
       gradientTransform="translate(241.68194,360.63125)" /><linearGradient
       inkscape:collect="always"
       xlink:href="#linearGradient4279"
       id="linearGradient4717"
       x1="348.44388"
       y1="-505.63113"
       x2="476.21909"
       y2="-505.63113"
       gradientUnits="userSpaceOnUse"
       gradientTransform="matrix(0.70710678,0.70710678,0.70710678,-0.70710678,478.30431,-143.46626)" /></defs><sodipodi:namedview
     pagecolor="#ffffff"
     bordercolor="#666666"
     borderopacity="1"
     objecttolerance="10"
     gridtolerance="10"
     guidetolerance="10"
     inkscape:pageopacity="0"
     inkscape:pageshadow="2"
     inkscape:window-width="1920"
     inkscape:window-height="1137"
     id="namedview4138"
     showgrid="false"
     inkscape:zoom="0.7094638"
     inkscape:cx="20.598553"
     inkscape:cy="202.99654"
     inkscape:window-x="-8"
     inkscape:window-y="-8"
     inkscape:window-maximized="1"
     inkscape:current-layer="g4735"
     fit-margin-top="0"
     fit-margin-left="0"
     fit-margin-right="0"
     fit-margin-bottom="0" /><g
     id="g4144"
     inkscape:groupmode="layer"
     inkscape:label="Bez nazwy-1"
     transform="matrix(1.25,0,0,-1.25,-410.55567,498.60932)"><g
       id="g4735"
       transform="translate(55.056428,-170.63125)"><g
         id="text4226"
         style="font-style:normal;font-weight:normal;font-size:155.33598328px;line-height:125%;font-family:sans-serif;letter-spacing:0px;word-spacing:0px;fill:#ffffff;fill-opacity:1;stroke:none;stroke-width:1px;stroke-linecap:butt;stroke-linejoin:miter;stroke-opacity:1"
         transform="matrix(0.99999991,0,0,-1.0000001,3.7206962,0)"><path
           inkscape:connector-curvature="0"
           id="path4725"
           style="font-style:normal;font-variant:normal;font-weight:normal;font-stretch:normal;font-family:'Bebas Neue';-inkscape-font-specification:'Bebas Neue';fill:#ffffff;fill-opacity:1"
           d="m 538.78272,-559.9988 -25.78577,0 0,108.73519 26.87312,0 c 17.08696,0 25.94111,-9.00949 25.94111,-25.78577 l 0,-8.85416 c 0,-11.49486 -3.57273,-19.72766 -12.73755,-23.30039 7.61146,-3.57273 11.02886,-10.71819 11.02886,-21.90238 l 0,-3.8834 c 0,-16.77628 -7.61147,-25.00909 -25.31977,-25.00909 z m -1.08735,59.80435 c 7.7668,0 11.02885,3.10672 11.02885,13.20356 l 0,9.4755 c 0,8.07747 -3.10672,10.71818 -8.85415,10.71818 l -9.78616,0 0,-33.39724 7.61146,0 z m 0.62134,-44.27075 c 6.05811,0 8.69882,3.41739 8.69882,11.18419 l 0,6.0581 c 0,8.69882 -3.8834,11.49487 -10.25218,11.49487 l -6.67944,0 0,-28.73716 8.2328,0 z" /><path
           inkscape:connector-curvature="0"
           id="path4727"
           style="font-style:normal;font-variant:normal;font-weight:normal;font-stretch:normal;font-family:'Bebas Neue';-inkscape-font-specification:'Bebas Neue';fill:#ffffff;fill-opacity:1"
           d="m 614.00417,-559.9988 -25.00909,0 -17.39763,108.73519 15.68893,0 2.95139,-19.72767 20.97035,0 2.95139,19.72767 17.24229,0 -17.39763,-108.73519 z m -13.35889,19.26166 8.2328,54.98894 -16.46561,0 8.23281,-54.98894 z" /><path
           inkscape:connector-curvature="0"
           id="path4729"
           style="font-style:normal;font-variant:normal;font-weight:normal;font-stretch:normal;font-family:'Bebas Neue';-inkscape-font-specification:'Bebas Neue';fill:#ffffff;fill-opacity:1"
           d="m 638.12008,-559.9988 0,15.5336 30.91186,0 -32.46522,77.97866 0,15.22293 50.01819,0 0,-15.5336 -32.46522,0 32.46522,-77.97866 0,-15.22293 -48.46483,0 z" /><path
           inkscape:connector-curvature="0"
           id="path4731"
           style="font-style:normal;font-variant:normal;font-weight:normal;font-stretch:normal;font-family:'Bebas Neue';-inkscape-font-specification:'Bebas Neue';fill:#ffffff;fill-opacity:1"
           d="m 734.45023,-559.9988 -25.0091,0 -17.39763,108.73519 15.68894,0 2.95138,-19.72767 20.97036,0 2.95138,19.72767 17.2423,0 -17.39763,-108.73519 z m -13.3589,19.26166 8.23281,54.98894 -16.46561,0 8.2328,-54.98894 z" /><path
           inkscape:connector-curvature="0"
           id="path4733"
           style="font-style:normal;font-variant:normal;font-weight:normal;font-stretch:normal;font-family:'Bebas Neue';-inkscape-font-specification:'Bebas Neue';fill:#ffffff;fill-opacity:1"
           d="m 812.77841,-451.26361 c -1.7087,-4.03874 -1.86403,-7.92214 -1.86403,-13.20356 l 0,-16.77629 c 0,-11.33952 -2.79605,-19.57233 -11.33953,-23.14506 7.61146,-3.57272 11.18419,-10.87352 11.18419,-22.05771 l 0,-8.54348 c 0,-16.77628 -7.61146,-25.00909 -25.31976,-25.00909 l -25.78578,0 0,108.73519 17.08696,0 0,-44.27076 5.90277,0 c 7.7668,0 11.18419,3.72807 11.18419,13.82491 l 0,17.08695 c 0,8.85416 0.62134,10.56285 1.55336,13.3589 l 17.39763,0 z m -27.80514,-93.20159 c 6.0581,0 8.69881,3.41739 8.69881,11.18419 l 0,10.71818 c 0,8.69882 -3.8834,11.49487 -10.25217,11.49487 l -6.67945,0 0,-33.39724 8.23281,0 z" /></g><path
         inkscape:connector-curvature="0"
         id="path4230"
         d="m 367.15596,550.80653 a 63.8876,63.8876 0 0 1 1e-5,-90.35057 63.8876,63.8876 0 0 1 90.35056,0 63.8876,63.8876 0 0 1 10e-6,90.35057 63.8876,63.8876 0 0 1 -90.35058,0 z m 24.24382,-24.24381 a 29.601881,29.601881 0 0 0 41.86294,0 29.601881,29.601881 0 0 0 0,-41.86294 29.601881,29.601881 0 0 0 -41.86293,0 29.601881,29.601881 0 0 0 -10e-6,41.86294 z"
         style="fill:url(#linearGradient4717);fill-opacity:1;stroke:none;stroke-opacity:1" /><circle
         cx="571.78156"
         cy="-143.289"
         r="29.601879"
         transform="matrix(0.70710678,0.70710678,0.70710678,-0.70710678,0,0)"
         id="path4230-7-2"
         style="fill:url(#linearGradient4709);fill-opacity:1;stroke:none;stroke-opacity:1" /></g></g></svg>