<?xml version="1.0" encoding="UTF-8" standalone="no"?>
<!-- Created with Inkscape (http://www.inkscape.org/) -->

<svg
   xmlns:dc="http://purl.org/dc/elements/1.1/"
   xmlns:cc="http://creativecommons.org/ns#"
   xmlns:rdf="http://www.w3.org/1999/02/22-rdf-syntax-ns#"
   xmlns:svg="http://www.w3.org/2000/svg"
   xmlns="http://www.w3.org/2000/svg"
   xmlns:sodipodi="http://sodipodi.sourceforge.net/DTD/sodipodi-0.dtd"
   xmlns:inkscape="http://www.inkscape.org/namespaces/inkscape"
   width="232.56874mm"
   height="44.979168mm"
   viewBox="0 0 232.56875 44.979166"
   version="1.1"
   id="svg8"
   inkscape:version="0.92.0 r15299"
   sodipodi:docname="logo.svg">
  <defs
     id="defs2" />
  <sodipodi:namedview
     id="base"
     pagecolor="#ffffff"
     bordercolor="#666666"
     borderopacity="1.0"
     inkscape:pageopacity="0.0"
     inkscape:pageshadow="2"
     inkscape:zoom="0.35"
     inkscape:cx="268.07142"
     inkscape:cy="-165.29093"
     inkscape:document-units="mm"
     inkscape:current-layer="layer1"
     showgrid="false"
     inkscape:window-width="3840"
     inkscape:window-height="2066"
     inkscape:window-x="3829"
     inkscape:window-y="-11"
     inkscape:window-maximized="1"
     units="mm"
     fit-margin-top="0"
     fit-margin-left="0"
     fit-margin-right="0"
     fit-margin-bottom="0" />
  <metadata
     id="metadata5">
    <rdf:RDF>
      <cc:Work
         rdf:about="">
        <dc:format>image/svg+xml</dc:format>
        <dc:type
           rdf:resource="http://purl.org/dc/dcmitype/StillImage" />
        <dc:title></dc:title>
      </cc:Work>
    </rdf:RDF>
  </metadata>
  <g
     inkscape:label="Layer 1"
     inkscape:groupmode="layer"
     id="layer1"
     transform="translate(-34.906103,-163.38542)">
    <g
       id="g54"
       transform="matrix(0.26458333,0,0,0.26458333,-29.519938,84.275001)">
      <g
         id="g32">
        <path
           id="path12"
           d="m 328.5,299 c -46.9,0 -85,38.1 -85,85 0,46.9 38.1,85 85,85 46.9,0 85,-38.1 85,-85 0,-46.9 -38.1,-85 -85,-85 z m 0,163.9 c -43.6,0 -78.9,-35.3 -78.9,-78.9 0,-43.6 35.3,-78.9 78.9,-78.9 43.6,0 78.9,35.3 78.9,78.9 0,43.6 -35.3,78.9 -78.9,78.9 z"
           class="st0"
           inkscape:connector-curvature="0"
           style="fill:#ffffff" />
        <g
           id="g30">
          <g
             id="g26">
            <path
               id="path14"
               d="m 359.4,318 c 0.1,0.7 0.1,1.4 0,1.9 0,0.5 -0.1,1.4 -0.6,2.7 -1,2.7 -2.7,4.5 -3,4.9 -0.5,0.5 -1.1,1.4 -1.8,2.8 0,0.4 0.1,0.7 0.3,1.1 0.2,0.5 0.3,0.4 0.9,1.5 0.5,0.8 0.8,1.5 1,2 -0.2,0.3 -0.4,0.9 -1,1.1 -0.8,0.2 -1.5,-0.8 -1.8,-0.6 -0.3,0.2 0.1,1.3 0.3,1.8 0.5,1.6 0.2,2.9 -0.3,5.5 -1.9,9.3 -1.4,8.6 -3,14.9 -1.5,5.7 -2.8,9.5 -4.3,13.1 -0.7,1.8 -1.7,3.8 -3.3,6.1 0,0 -1.8,2.4 -3.9,4.3 -0.2,0.2 -0.4,0.4 -0.7,0.5 0.1,2.9 0.4,6.7 1,11.6 1.8,16.8 5.9,31.2 7.9,38.3 1.5,5.4 2.9,9.4 4.6,16.7 0.3,1.5 0.8,3.2 1.1,4.7 28.3,-10 48.7,-37 48.7,-68.7 -0.1,-29.4 -17.3,-54.6 -42.1,-66.2 z"
               class="st0"
               inkscape:connector-curvature="0"
               style="fill:#ffffff" />
            <path
               id="path16"
               d="m 341.6,374.9 c 0.8,-1.1 2.6,-3.9 4.3,-9.1 1,-3.1 1.5,-6.4 2.4,-13.1 0.6,-4.2 0.9,-6.4 0.9,-8.5 0,-0.9 0,-2 0,-3.5 -3.4,7.4 -5.2,11.2 -6,13.5 -1.4,3.9 -3.9,10.5 -4.9,18.5 -0.1,1 -0.2,2.8 -0.1,6.1 0.2,-0.1 0.3,-0.2 0.5,-0.4 1.1,-1 2.1,-2.4 2.9,-3.5 z"
               class="st0"
               inkscape:connector-curvature="0"
               style="fill:#ffffff" />
            <path
               id="path18"
               d="m 287.8,324.8 c 0.7,0.6 1.2,1.6 2.4,1.8 0.6,0.1 0.7,-0.1 1.8,0 1.2,0.1 1.8,0.1 2.4,0.6 0.6,0.5 1,1.3 0.9,2.1 -0.1,1 -0.8,1.3 -0.6,2.1 0.1,0.6 0.6,1 0.9,1.2 1,0.8 1.7,0.4 2.4,0.9 1.2,0.8 0.6,2.4 1.5,4.6 0.2,0.6 0.6,1.2 2.4,3 2.5,2.5 3.7,3.2 6.4,5.5 1.6,1.4 3.5,3 5.8,5.5 1.7,1.8 2.3,2.7 3.9,3.6 0.8,0.5 2.6,1.4 4.9,1.2 0.4,0 2.6,-0.2 4.6,-1.8 1.8,-1.5 1.6,-2.8 3.6,-7.9 2.1,-5.2 3.1,-6 4.3,-10 0.2,-0.7 0.5,-2 0.8,-2.5 -0.1,-0.9 -0.3,-2.5 -0.4,-2.9 0,-0.9 0.2,-2.2 1.2,-3.1 0.5,-0.5 1,-0.6 1.8,-0.9 1.8,-0.6 2.1,-0.6 1.8,-1.2 -0.2,-0.5 0.6,-1 1.2,-2.4 0.6,-1.4 0.4,-2.3 0.9,-2.4 0.6,-0.2 1,1.3 1.8,1.2 1.1,-0.1 1,-2.8 3.3,-4.9 0.4,-0.4 0.3,-0.1 1.8,-1.2 1.2,-0.8 1.9,-1.4 2.5,-1.8 -7.4,-2.6 -15.4,-4 -23.7,-4 -15.5,0 -29.8,4.8 -41.6,13.1 0.4,0.2 0.7,0.4 1,0.6 z"
               class="st0"
               inkscape:connector-curvature="0"
               style="fill:#ffffff" />
            <path
               id="path20"
               d="m 302.7,420.1 c 1,-1.8 0.2,-1.9 1.2,-9.1 0.6,-4.6 1.3,-9.1 3.3,-14.3 1,-2.4 2,-4.9 4.3,-7.6 0.8,-1 2.8,-3.1 5.8,-4.9 0.3,-0.2 0.5,-0.3 0.8,-0.4 -2.8,-5.4 -5.4,-9.3 -6.5,-11.1 -3.9,-6 -6.6,-9 -10.3,-13.4 0,0 -4,-4.6 -10.6,-8.8 -0.5,-0.3 -1,-0.6 -1.5,-0.8 0.3,0.8 0.6,1.6 0.9,2.7 1.6,6 2.8,10.9 2.4,17 -0.2,3.5 -0.5,8.5 -3.6,13.4 -1.3,2.1 -1.8,2 -5.8,7 -2.8,3.6 -4.7,6.3 -6.1,8.2 -4.9,7.1 -5.9,9.6 -6.4,11.5 -0.9,3.5 -0.5,5.3 -0.3,6.1 0.2,0.8 1.1,2.5 4.3,5.5 1.2,1.1 4.9,4.5 10.6,5.5 6.3,1 14.5,-1.1 17.5,-6.5 z"
               class="st0"
               inkscape:connector-curvature="0"
               style="fill:#ffffff" />
            <path
               id="path22"
               d="m 266,417.1 c 0.7,-2.1 1.5,-3.3 2.1,-4.6 2.3,-4.3 0.9,-5.3 3,-10.3 1.6,-3.9 3.8,-6.4 4.6,-7.3 1.3,-1.5 1.5,-1.3 3.9,-3.6 3.4,-3.2 5.3,-5 6.7,-7.6 1.2,-2.2 1.5,-4.2 2.1,-8.2 0.6,-3.9 0.6,-6.8 0.6,-10.9 0,-4.4 -0.3,-3.4 -0.3,-8.2 0,-2 -0.6,-4 -0.6,-6.1 0,-0.2 0,-0.5 0,-0.9 -0.1,0 -0.2,0 -0.3,0 -1.2,-0.2 -1.9,0.2 -2.4,-0.3 -0.8,-0.6 -0.1,-1.7 -0.9,-2.4 -0.7,-0.7 -1.6,0 -2.7,-0.6 -0.8,-0.5 -0.6,-0.9 -1.5,-2.1 -1.3,-1.7 -2.3,-1.5 -2.7,-2.7 -0.5,-1.3 0.2,-2.6 0.3,-2.7 0.6,-1 1.2,-0.9 1.5,-1.5 0.5,-1.1 -1.3,-2.5 -2.7,-4.1 -13,13.2 -21,31.2 -21,51.2 0,13.1 3.5,25.5 9.6,36.1 0.1,-1.5 0.5,-2.6 0.7,-3.2 z"
               class="st0"
               inkscape:connector-curvature="0"
               style="fill:#ffffff" />
            <path
               id="path24"
               d="m 335.5,447.4 c -0.3,-5.7 -1.4,-11.4 -2.4,-17 -1.3,-6.9 -2.6,-11.8 -4.3,-18.2 -1.5,-5.8 -2.5,-9 -3.6,-12.1 -0.4,-1.1 -1.4,-3.8 -2.7,-7 -0.8,-1.9 -1.7,-3.8 -2.5,-5.5 -0.5,0.3 -1,0.6 -1.4,0.9 -3.2,2.4 -5.2,5.4 -6.4,7.3 -2.2,3.4 -3.2,6.4 -4.3,9.7 -1.9,5.7 -1.2,6.5 -2.7,10.3 -0.2,0.5 -0.6,1.4 -0.6,2.7 0,1.9 0.9,2.8 1.5,4.6 0.6,1.9 0.5,3.4 0.3,6.1 -0.1,0.9 -0.4,4.3 -1.5,6.7 -2.8,5.7 -11.9,8.1 -19.3,6.9 12,8.8 26.9,14 42.9,14 2.7,0 5.4,-0.2 8,-0.4 0.1,-3 -0.8,-6 -1,-9 z"
               class="st0"
               inkscape:connector-curvature="0"
               style="fill:#ffffff" />
          </g>
          <path
             id="path28"
             d="m 335.8,331.8 c -0.1,0 -0.1,0.9 0,0.9 0,0 0,-0.3 0,-0.9 0,0 0,0 0,0 z"
             class="st1"
             inkscape:connector-curvature="0"
             style="fill:#ffffff;stroke:#000000;stroke-miterlimit:10" />
        </g>
      </g>
      <g
         id="g52">
        <path
           id="path34"
           d="m 450.8,413.2 9.2,-9.8 V 318 h 20.7 v 63.1 l 22.8,-24.5 v 18.8 L 480.8,400 v 31.1 h 34.1 v 18.8 h -54.8 v -27.7 l -9.2,9.8 v -18.8 z"
           class="st0"
           inkscape:connector-curvature="0"
           style="fill:#ffffff" />
        <path
           id="path36"
           d="m 522.3,349.7 c 0,-21.1 11.1,-33.2 31.5,-33.2 20.4,0 31.5,12.1 31.5,33.2 v 68.6 c 0,21.1 -11.1,33.2 -31.5,33.2 -20.3,0 -31.5,-12.1 -31.5,-33.2 z m 20.7,69.9 c 0,9.4 4.2,13 10.7,13 6.6,0 10.7,-3.6 10.7,-13 v -71.2 c 0,-9.4 -4.1,-13 -10.7,-13 -6.6,0 -10.7,3.6 -10.7,13 z"
           class="st0"
           inkscape:connector-curvature="0"
           style="fill:#ffffff" />
        <path
           id="path38"
           d="M 644.6,379.7 637.1,450 H 608.6 L 593.9,318.1 h 20.2 l 11.1,104 10,-104 h 20 l 10.4,104.8 10.7,-104.8 h 18.1 L 679.7,450 h -27.5 z"
           class="st0"
           inkscape:connector-curvature="0"
           style="fill:#ffffff" />
        <path
           id="path40"
           d="m 764.9,400.8 v 17.5 c 0,21.1 -10.6,33.2 -30.9,33.2 -20.4,0 -30.9,-12.1 -30.9,-33.2 v -68.6 c 0,-21.1 10.6,-33.2 30.9,-33.2 20.3,0 30.9,12.1 30.9,33.2 v 12.8 h -19.6 v -14.1 c 0,-9.4 -4.1,-13 -10.7,-13 -6.6,0 -10.7,3.6 -10.7,13 v 71.2 c 0,9.4 4.2,12.8 10.7,12.8 6.6,0 10.7,-3.4 10.7,-12.8 v -18.8 z"
           class="st0"
           inkscape:connector-curvature="0"
           style="fill:#ffffff" />
        <path
           id="path42"
           d="M 794.9,406.2 768.7,318 h 21.7 L 806.2,378.1 822,318 h 19.8 l -26.2,88.2 v 43.7 h -20.7 z"
           class="st0"
           inkscape:connector-curvature="0"
           style="fill:#ffffff" />
        <path
           id="path44"
           d="m 910.4,376.5 h 29 v 41.8 c 0,21.1 -10.6,33.2 -30.9,33.2 -20.4,0 -30.9,-12.1 -30.9,-33.2 v -68.6 c 0,-21.1 10.6,-33.2 30.9,-33.2 20.3,0 30.9,12.1 30.9,33.2 v 12.8 h -19.6 v -14.1 c 0,-9.4 -4.1,-13 -10.7,-13 -6.6,0 -10.7,3.6 -10.7,13 v 71.2 c 0,9.4 4.2,12.8 10.7,12.8 6.6,0 10.7,-3.4 10.7,-12.8 v -24.3 h -9.4 z"
           class="st0"
           inkscape:connector-curvature="0"
           style="fill:#ffffff" />
        <path
           id="path46"
           d="m 952.9,318.1 h 20.7 V 450 h -20.7 z"
           class="st0"
           inkscape:connector-curvature="0"
           style="fill:#ffffff" />
        <path
           id="path48"
           d="m 1009.4,373.6 h 28.5 v 18.8 h -28.5 V 431 h 35.8 v 18.8 H 988.7 V 318.1 h 56.5 v 18.8 h -35.8 z"
           class="st0"
           inkscape:connector-curvature="0"
           style="fill:#ffffff" />
        <path
           id="path50"
           d="m 1101.4,449.9 c -1.1,-3.4 -1.9,-5.5 -1.9,-16.2 V 413 c 0,-12.3 -4.1,-16.8 -13.6,-16.8 h -7.2 v 53.7 H 1058 V 318.1 h 31.3 c 21.5,0 30.7,10 30.7,30.3 v 10.4 c 0,13.6 -4.3,22.4 -13.6,26.8 10.4,4.3 13.8,14.3 13.8,28.1 v 20.4 c 0,6.4 0.2,11.1 2.3,16 h -21.1 z m -22.6,-113 v 40.5 h 8.1 c 7.7,0 12.4,-3.4 12.4,-13.9 v -13 c 0,-9.4 -3.2,-13.6 -10.6,-13.6 z"
           class="st0"
           inkscape:connector-curvature="0"
           style="fill:#ffffff" />
      </g>
    </g>
  </g>
  <style
     id="style10"
     type="text/css">
	.st0{fill:#FFFFFF;}
	.st1{fill:#FFFFFF;stroke:#000000;stroke-miterlimit:10;}
</style>
</svg>
